<svg width="100" height="100" xmlns="http://www.w3.org/2000/svg" xmlns:xlink="http://www.w3.org/1999/xlink" version="1.1">

 <g>
  <title>Layer 1</title>
  <use transform="matrix(0.196111 0 0 0.196111 113.885 58.6345)" stroke="1" id="svg_26" xlink:href="#v" y="323.06649" x="-601.39594"/>
  <use transform="matrix(0.196111 0 0 0.196111 113.885 58.6345)" stroke="1" id="svg_27" xlink:href="#d" y="323.06649" x="-580.84907"/>
  <use transform="matrix(0.196111 0 0 0.196111 113.885 58.6345)" stroke="1" id="svg_28" xlink:href="#a" y="323.06649" x="-567.04047"/>
  <use transform="matrix(0.196111 0 0 0.196111 113.885 58.6345)" stroke="1" id="svg_29" xlink:href="#c" y="323.06649" x="-548.04829"/>
  <use transform="matrix(0.196111 0 0 0.196111 113.885 58.6345)" stroke="1" id="svg_30" xlink:href="#b" y="323.06649" x="-529.15375"/>
  <use transform="matrix(0.196111 0 0 0.196111 113.885 58.6345)" stroke="1" id="svg_31" xlink:href="#a" y="323.06649" x="-515.77094"/>
  <use transform="matrix(0.196111 0 0 0.196111 113.885 58.6345)" stroke="1" id="svg_32" xlink:href="#i" y="323.06649" x="-496.77875"/>
  <use transform="matrix(0.196111 0 0 0.196111 113.885 58.6345)" stroke="1" id="svg_33" xlink:href="#h" y="323.06649" x="-466.98969"/>
  <use transform="matrix(0.196111 0 0 0.196111 113.885 58.6345)" stroke="1" id="svg_34" xlink:href="#g" y="323.06649" x="-446.94672"/>
  <use transform="matrix(0.196111 0 0 0.196111 113.885 58.6345)" stroke="1" id="svg_35" xlink:href="#f" y="323.06649" x="-418.94672"/>
  <use transform="matrix(0.196111 0 0 0.196111 113.885 58.6345)" stroke="1" id="svg_36" xlink:href="#c" y="323.06649" x="-398.42329"/>
  <use transform="matrix(0.196111 0 0 0.196111 113.885 58.6345)" stroke="1" id="svg_37" xlink:href="#u" y="323.06649" x="-379.52875"/>
  <use transform="matrix(0.196111 0 0 0.196111 113.885 58.6345)" stroke="1" id="svg_38" xlink:href="#a" y="323.06649" x="-353.66157"/>
  <use transform="matrix(0.196111 0 0 0.196111 113.885 58.6345)" stroke="1" id="svg_39" xlink:href="#t" y="323.06649" x="-334.66938"/>
  <use transform="matrix(0.196111 0 0 0.196111 113.885 58.6345)" stroke="1" id="svg_40" xlink:href="#s" y="323.06649" x="-315.32563"/>
  <use transform="matrix(0.196111 0 0 0.196111 113.885 58.6345)" stroke="1" id="svg_41" xlink:href="#c" y="323.06649" x="-293.76313"/>
  <use transform="matrix(0.196111 0 0 0.196111 113.885 58.6345)" stroke="1" id="svg_42" xlink:href="#r" y="323.06649" x="-274.8725"/>
  <use transform="matrix(0.196111 0 0 0.196111 113.885 58.6345)" stroke="1" id="svg_43" xlink:href="#q" y="351.06649" x="-601.39594"/>
  <use transform="matrix(0.196111 0 0 0.196111 113.885 58.6345)" stroke="1" id="svg_44" xlink:href="#d" y="351.06649" x="-589.21235"/>
  <use transform="matrix(0.196111 0 0 0.196111 113.885 58.6345)" stroke="1" id="svg_45" xlink:href="#e" y="351.06649" x="-575.40375"/>
  <use transform="matrix(0.196111 0 0 0.196111 113.885 58.6345)" stroke="1" id="svg_46" xlink:href="#p" y="351.06649" x="-556.16938"/>
  <use transform="matrix(0.196111 0 0 0.196111 113.885 58.6345)" stroke="1" id="svg_47" xlink:href="#b" y="351.06649" x="-517.2436"/>
  <use transform="matrix(0.196111 0 0 0.196111 113.885 58.6345)" stroke="1" id="svg_48" xlink:href="#o" y="351.06649" x="-503.86079"/>
  <use transform="matrix(0.196111 0 0 0.196111 113.885 58.6345)" stroke="1" id="svg_49" xlink:href="#a" y="351.06649" x="-483.92719"/>
  <use transform="matrix(0.196111 0 0 0.196111 113.885 58.6345)" stroke="1" id="svg_50" xlink:href="#n" y="351.06649" x="-455.18891"/>
  <use transform="matrix(0.196111 0 0 0.196111 113.885 58.6345)" stroke="1" id="svg_51" xlink:href="#e" y="351.06649" x="-431.75532"/>
  <use transform="matrix(0.196111 0 0 0.196111 113.885 58.6345)" stroke="1" id="svg_52" xlink:href="#m" y="351.06649" x="-412.51704"/>
  <use transform="matrix(0.196111 0 0 0.196111 113.885 58.6345)" stroke="1" id="svg_53" xlink:href="#l" y="351.06649" x="-392.58344"/>
  <use transform="matrix(0.196111 0 0 0.196111 113.885 58.6345)" stroke="1" id="svg_54" xlink:href="#f" y="351.06649" x="-362.90375"/>
  <use transform="matrix(0.196111 0 0 0.196111 113.885 58.6345)" stroke="1" id="svg_55" xlink:href="#d" y="351.06649" x="-342.38032"/>
  <use transform="matrix(0.196111 0 0 0.196111 113.885 58.6345)" stroke="1" id="svg_56" xlink:href="#e" y="351.06649" x="-328.57563"/>
  <use transform="matrix(0.196111 0 0 0.196111 113.885 58.6345)" stroke="1" id="svg_57" xlink:href="#k" y="351.06649" x="-309.33735"/>
  <use transform="matrix(0.196111 0 0 0.196111 113.885 58.6345)" stroke="1" id="svg_58" xlink:href="#a" y="351.06649" x="-299.73969"/>
  <use transform="matrix(0.196111 0 0 0.196111 113.885 58.6345)" stroke="1" id="svg_59" xlink:href="#j" y="351.06649" x="-280.7475"/>
  <use transform="matrix(0.196111 0 0 0.196111 113.885 58.6345)" stroke="1" id="svg_60" xlink:href="#b" y="351.06649" x="-264.15375"/>
  <g stroke="1" id="svg_61">
   <path stroke="1" id="svg_24" d="m32.67747,63.01292c-0.8076,3.2292 1.13029,5.24763 4.35952,4.35952l11.30291,-2.82609l29.87274,-29.95348c2.34109,-2.34109 2.34109,-6.2169 0,-8.55799l-4.27907,-4.27907c-2.34109,-2.34109 -6.2169,-2.34109 -8.55799,0l-29.87274,29.95348l-2.82537,11.30363zm30.68011,-30.51864s4.27907,4.27907 4.27907,4.27907l-16.06669,16.06669l-4.27907,-4.27907l16.06669,-16.06669zm-22.36419,22.36419l2.01843,-2.01843l4.27907,4.27907l-2.01843,2.01843l-5.65146,1.37246l1.37239,-5.65153z"/>
   <path stroke="1" id="svg_25" d="m26.05703,80.1292l42.38699,0c3.31037,0 6.05528,-2.74492 6.05528,-6.05528l0,-21.23387c0,-1.69577 -1.37246,-3.06816 -3.06816,-3.06816c-1.69577,0 -3.06816,1.37246 -3.06816,3.06816l0.00056,21.23387l-42.38699,0l0,-42.38699l21.23387,0c1.69577,0 3.06816,-1.37246 3.06816,-3.06816c-0.00056,-1.69519 -1.37302,-2.98713 -2.98771,-2.98713l-21.23387,0c-3.31037,0 -6.05528,2.74492 -6.05528,6.05528l0,42.38699c-0.08053,3.31037 2.66433,6.05528 6.05528,6.05528l0.00001,0z"/>
  </g>
 </g>
</svg>