<svg width="75" height="50" xmlns="http://www.w3.org/2000/svg" xml:space="preserve" enable-background="new 0 0 100 100" version="1.1" fill="#000">

 <g>
  <title>Layer 1</title>
  <g id="svg_1">
   <path id="svg_2" d="m95.401,4.61c-1.264,-1.264 -2.457,-2.458 -4.037,-2.734c-0.23,-0.042 -0.468,-0.065 -0.713,-0.065c-1.56,0 -3.176,0.889 -5.087,2.8l-3.438,3.45c-0.001,0.001 -0.002,0.001 -0.003,0.002l-74.247,74.248c-0.001,0.001 -0.001,0.002 -0.002,0.003c-0.078,0.079 -0.141,0.173 -0.184,0.277l-0.001,0.002c0,0.001 0,0.002 -0.001,0.003l-4.168,10.019c-0.001,0.001 -0.001,0.002 -0.002,0.004l-2.001,4.972c0,0.001 0,0.001 0,0.002c-0.041,0.104 -0.063,0.215 -0.061,0.329c0.001,0.113 0.025,0.224 0.069,0.326c0,0.001 0,0.002 0,0.003c0.041,0.094 0.1,0.173 0.166,0.243c0.018,0.02 0.039,0.034 0.059,0.052c0.061,0.054 0.126,0.097 0.199,0.131c0.015,0.007 0.025,0.021 0.042,0.027c0.009,0.004 0.021,0.003 0.031,0.006c0.091,0.033 0.186,0.056 0.285,0.056c0.001,0 0.002,0.001 0.003,0.001l0,0l0,0c0.001,0 0.001,-0.001 0.002,-0.001c0.105,0 0.206,-0.025 0.302,-0.063c0.011,-0.005 0.023,-0.003 0.035,-0.008l14.783,-6.38c0.027,-0.012 0.045,-0.034 0.07,-0.049c0.059,-0.032 0.116,-0.066 0.165,-0.111c0.01,-0.009 0.022,-0.012 0.031,-0.021l63.478,-63.466l10.766,-10.776l3.459,-3.447c4.899,-4.912 2.413,-7.41 0,-9.835zm-88.018,90.179l-2.061,-2.053l3.731,-8.969l3.203,-0.023l0,3.088c0,0.473 0.383,0.855 0.856,0.855l3.126,0l0,3.279l-8.855,3.823zm10.559,-7.913c0.001,-0.016 0.009,-0.028 0.009,-0.044c0,-0.473 -0.383,-0.855 -0.856,-0.855l-3.126,0l0,-3.094c0,-0.001 0,-0.002 0,-0.003s0,-0.002 0,-0.003c0,-0.063 -0.023,-0.117 -0.037,-0.175c-0.011,-0.052 -0.012,-0.107 -0.032,-0.154c-0.022,-0.052 -0.062,-0.092 -0.093,-0.138c-0.031,-0.045 -0.053,-0.096 -0.091,-0.134c-0.043,-0.042 -0.1,-0.068 -0.151,-0.102c-0.041,-0.026 -0.075,-0.062 -0.121,-0.08c-0.102,-0.044 -0.214,-0.067 -0.332,-0.067c-0.002,0 -0.004,0 -0.006,0l-2.544,0.019l61.385,-61.396l7.409,7.408l-61.405,61.405l0,-2.543c0,-0.016 -0.008,-0.028 -0.009,-0.044zm55.215,-67.435l2.505,-2.502l7.403,7.41l-2.505,2.506l-7.403,-7.414zm3.274,-3.271l1.38,-1.378l7.411,7.401l-1.381,1.381l-7.41,-7.404zm2.156,-2.153l1.381,-1.38l7.408,7.402l-1.378,1.378l-7.411,-7.4zm2.156,-2.155l1.984,-1.982l7.403,7.404l-1.982,1.983l-7.405,-7.405z" fill="#000000"/>
  </g>
  <rect id="svg_3" height="40" width="10" y="54.93333" x="68.4" stroke="#000" fill="#000"/>
  <path id="svg_4" d="m54.53333,69.6l38,0l0,10l-38,0l0,-10z" opacity="undefined" stroke="#000" fill="#000"/>
 </g>
</svg>
